<svg width="1600" height="1000" viewBox="0 0 1600 1000" fill="none" xmlns="http://www.w3.org/2000/svg">
  <defs>
    <linearGradient id="bg" x1="0" y1="0" x2="1600" y2="1000" gradientUnits="userSpaceOnUse">
      <stop stop-color="#0B1D34"/>
      <stop offset="1" stop-color="#102A43"/>
    </linearGradient>
    <linearGradient id="accent" x1="200" y1="900" x2="1450" y2="120" gradientUnits="userSpaceOnUse">
      <stop stop-color="#2563EB" stop-opacity="0.9"/>
      <stop offset="0.55" stop-color="#10B981" stop-opacity="0.75"/>
      <stop offset="1" stop-color="#8B5CF6" stop-opacity="0.7"/>
    </linearGradient>
    <filter id="blur" x="-20%" y="-20%" width="140%" height="140%">
      <feGaussianBlur stdDeviation="14"/>
    </filter>
  </defs>

  <rect width="1600" height="1000" fill="url(#bg)"/>

  <circle cx="1220" cy="160" r="220" fill="#2563EB" fill-opacity="0.2" filter="url(#blur)"/>
  <circle cx="280" cy="260" r="180" fill="#10B981" fill-opacity="0.2" filter="url(#blur)"/>
  <circle cx="820" cy="860" r="240" fill="#8B5CF6" fill-opacity="0.18" filter="url(#blur)"/>

  <path d="M110 740C300 650 430 820 620 700C800 585 980 680 1140 560C1260 470 1390 510 1490 430" stroke="url(#accent)" stroke-width="10" stroke-linecap="round"/>
  <path d="M120 800C300 720 420 890 600 780C790 660 960 760 1140 640C1260 560 1390 610 1490 540" stroke="white" stroke-opacity="0.2" stroke-width="4" stroke-linecap="round"/>

  <g opacity="0.8">
    <rect x="590" y="340" width="420" height="30" rx="15" fill="#E2E8F0" fill-opacity="0.23"/>
    <rect x="560" y="315" width="36" height="80" rx="10" fill="#CBD5E1" fill-opacity="0.35"/>
    <rect x="1004" y="315" width="36" height="80" rx="10" fill="#CBD5E1" fill-opacity="0.35"/>
    <rect x="520" y="300" width="36" height="110" rx="10" fill="#94A3B8" fill-opacity="0.38"/>
    <rect x="1044" y="300" width="36" height="110" rx="10" fill="#94A3B8" fill-opacity="0.38"/>
  </g>

  <g opacity="0.7">
    <rect x="280" y="500" width="26" height="220" rx="13" fill="#93C5FD" fill-opacity="0.35"/>
    <rect x="340" y="440" width="26" height="280" rx="13" fill="#86EFAC" fill-opacity="0.35"/>
    <rect x="400" y="560" width="26" height="160" rx="13" fill="#C4B5FD" fill-opacity="0.35"/>
    <rect x="460" y="390" width="26" height="330" rx="13" fill="#93C5FD" fill-opacity="0.35"/>
  </g>

  <g opacity="0.6" stroke="#F8FAFC" stroke-opacity="0.5" stroke-width="8" stroke-linecap="round">
    <path d="M1180 300L1180 420"/>
    <path d="M1120 360L1240 360"/>
  </g>
</svg>
