<svg width="900" height="420" viewBox="0 0 900 420" xmlns="http://www.w3.org/2000/svg" fill="none">
  <defs>
    <linearGradient id="bg" x1="0" y1="0" x2="900" y2="420" gradientUnits="userSpaceOnUse">
      <stop stop-color="#102744"/>
      <stop offset="1" stop-color="#1A3554"/>
    </linearGradient>
    <linearGradient id="track" x1="70" y1="332" x2="830" y2="148" gradientUnits="userSpaceOnUse">
      <stop stop-color="#10B981"/>
      <stop offset="1" stop-color="#2563EB"/>
    </linearGradient>
  </defs>
  <rect width="900" height="420" rx="18" fill="url(#bg)"/>
  <rect x="52" y="56" width="796" height="308" rx="14" fill="#0C223D" stroke="#2A4E72"/>
  <path d="M90 322H810" stroke="#355A82" stroke-width="6"/>
  <path d="M94 322C170 286 250 308 330 264C410 220 500 250 578 212C650 178 728 200 806 162" stroke="url(#track)" stroke-width="8" stroke-linecap="round"/>
  <rect x="130" y="118" width="16" height="138" rx="8" fill="#7CA3CF"/>
  <circle cx="138" cy="98" r="20" fill="#A7C1DC"/>
  <path d="M138 138L176 178L154 198L130 170" stroke="#A7C1DC" stroke-width="14" stroke-linecap="round" stroke-linejoin="round"/>
  <path d="M130 168L108 214" stroke="#A7C1DC" stroke-width="14" stroke-linecap="round"/>
  <path d="M152 198L188 240" stroke="#A7C1DC" stroke-width="14" stroke-linecap="round"/>
  <rect x="632" y="118" width="16" height="138" rx="8" fill="#9CCCB7"/>
  <circle cx="640" cy="98" r="20" fill="#C3E4D5"/>
  <path d="M640 138L684 168L664 192L638 166" stroke="#C3E4D5" stroke-width="14" stroke-linecap="round" stroke-linejoin="round"/>
  <path d="M638 166L620 216" stroke="#C3E4D5" stroke-width="14" stroke-linecap="round"/>
  <path d="M664 192L700 234" stroke="#C3E4D5" stroke-width="14" stroke-linecap="round"/>
  <rect x="356" y="92" width="188" height="96" rx="12" fill="#123354" stroke="#35608B"/>
  <rect x="378" y="116" width="62" height="44" rx="8" fill="#2A5D92"/>
  <rect x="448" y="108" width="72" height="10" rx="5" fill="#5D88B4"/>
  <rect x="448" y="126" width="54" height="10" rx="5" fill="#4A7098"/>
  <rect x="448" y="144" width="40" height="10" rx="5" fill="#4A7098"/>
</svg>