<svg width="900" height="420" viewBox="0 0 900 420" xmlns="http://www.w3.org/2000/svg" fill="none">
  <defs>
    <linearGradient id="bg" x1="0" y1="0" x2="900" y2="420" gradientUnits="userSpaceOnUse">
      <stop stop-color="#0E2440"/>
      <stop offset="1" stop-color="#153454"/>
    </linearGradient>
    <linearGradient id="line" x1="90" y1="320" x2="810" y2="130" gradientUnits="userSpaceOnUse">
      <stop stop-color="#8B5CF6"/>
      <stop offset=".5" stop-color="#2563EB"/>
      <stop offset="1" stop-color="#10B981"/>
    </linearGradient>
  </defs>
  <rect width="900" height="420" rx="18" fill="url(#bg)"/>
  <rect x="58" y="56" width="368" height="308" rx="14" fill="#0C223D" stroke="#2A4E72"/>
  <path d="M86 304H394" stroke="#32597F" stroke-width="4"/>
  <path d="M92 286C140 270 172 278 214 250C256 222 300 234 342 206C360 194 376 198 394 180" stroke="url(#line)" stroke-width="8" stroke-linecap="round"/>
  <circle cx="214" cy="250" r="8" fill="#8B5CF6"/>
  <circle cx="300" cy="234" r="8" fill="#2563EB"/>
  <circle cx="342" cy="206" r="8" fill="#10B981"/>
  <rect x="474" y="56" width="368" height="146" rx="14" fill="#0C223D" stroke="#2A4E72"/>
  <rect x="498" y="82" width="98" height="98" rx="12" fill="#14406A"/>
  <rect x="616" y="82" width="202" height="16" rx="8" fill="#3B6791"/>
  <rect x="616" y="108" width="162" height="14" rx="7" fill="#315A81"/>
  <rect x="616" y="132" width="132" height="14" rx="7" fill="#315A81"/>
  <rect x="616" y="156" width="182" height="14" rx="7" fill="#315A81"/>
  <rect x="474" y="218" width="368" height="146" rx="14" fill="#0C223D" stroke="#2A4E72"/>
  <rect x="504" y="250" width="36" height="84" rx="10" fill="#2B5D92"/>
  <rect x="554" y="236" width="36" height="98" rx="10" fill="#1E4F83"/>
  <rect x="604" y="262" width="36" height="72" rx="10" fill="#0FA071"/>
  <rect x="654" y="224" width="36" height="110" rx="10" fill="#7C4DCC"/>
  <rect x="704" y="244" width="36" height="90" rx="10" fill="#2B5D92"/>
  <rect x="754" y="266" width="36" height="68" rx="10" fill="#1E4F83"/>
</svg>